<?xml version="1.0" standalone="no"?>
<!DOCTYPE svg PUBLIC "-//W3C//DTD SVG 20010904//EN"
 "http://www.w3.org/TR/2001/REC-SVG-20010904/DTD/svg10.dtd">
<svg version="1.0" xmlns="http://www.w3.org/2000/svg"
 width="203.000000pt" height="210.000000pt" viewBox="0 0 203.000000 210.000000"
 preserveAspectRatio="xMidYMid meet">

<g transform="translate(0.000000,210.000000) scale(0.100000,-0.100000)"
fill="#000000" stroke="none">
<path d="M1007 1684 c-4 -4 -7 -16 -7 -26 0 -11 -15 -34 -34 -51 -47 -45 -74
-173 -38 -185 6 -2 12 3 12 12 0 25 18 18 35 -13 8 -16 26 -39 41 -50 24 -19
28 -19 56 -5 l31 16 -7 -59 c-4 -32 -10 -79 -13 -105 l-6 -48 -48 0 -49 0 0
116 c0 116 0 116 -22 110 -13 -4 -49 -11 -81 -17 -33 -5 -78 -16 -100 -24 -23
-8 -49 -15 -58 -15 -8 0 -24 -6 -35 -14 -15 -12 -17 -17 -6 -27 6 -7 12 -24
12 -38 0 -28 54 -121 69 -121 5 0 13 9 16 20 4 11 19 27 34 35 16 8 31 21 34
30 4 8 16 15 27 15 17 0 20 4 15 23 -6 21 -6 21 9 3 9 -11 16 -32 16 -47 0
-15 8 -36 18 -47 20 -23 62 -39 62 -23 0 6 11 11 25 11 15 0 25 -6 25 -15 0
-9 -6 -12 -15 -9 -8 4 -27 -2 -41 -11 -22 -14 -28 -15 -35 -4 -5 8 -9 17 -9
22 0 13 -20 7 -20 -7 0 -7 -49 -41 -108 -74 -60 -33 -114 -67 -120 -75 -11
-13 -13 -237 -3 -237 3 0 15 10 28 22 l23 21 26 -24 26 -24 -8 97 c-7 107 1
128 51 128 23 0 24 -2 15 -20 -12 -23 -11 -24 24 -10 18 6 26 6 26 -1 0 -6 10
-9 23 -7 16 2 23 -3 25 -20 3 -21 7 -22 73 -18 40 2 69 0 69 -6 0 -5 5 -6 11
-2 6 3 15 1 19 -7 7 -10 11 -10 24 0 9 8 16 19 16 26 0 8 9 10 25 7 14 -2 31
1 39 7 10 8 17 7 28 -7 11 -13 13 -36 8 -107 -3 -49 -5 -92 -3 -94 2 -2 11 3
21 12 18 16 20 16 37 -3 19 -21 62 -29 49 -8 -11 18 -5 101 11 154 25 82 23
88 -55 139 -39 25 -73 45 -76 45 -8 0 -98 63 -106 75 -4 5 -1 20 7 32 8 12 15
31 15 41 0 10 3 21 6 25 8 7 82 -30 111 -56 26 -23 53 -16 53 14 0 27 20 100
33 116 15 20 -4 35 -39 31 -19 -2 -35 -1 -36 4 -2 4 -36 14 -77 23 -40 8 -77
18 -82 21 -16 10 -9 24 15 30 22 5 24 13 31 81 7 74 6 76 -23 107 -16 17 -33
41 -37 54 -3 12 -10 20 -15 17 -5 -3 -12 0 -16 6 -4 8 -9 7 -15 -2 -8 -12 -10
-12 -18 0 -7 11 -10 11 -16 0 -7 -10 -10 -9 -15 5 -3 9 -9 14 -13 10z m131
-180 c-3 -51 -8 -66 -28 -83 -28 -23 -86 -27 -111 -8 -23 17 -37 66 -31 110 4
34 22 64 22 37 0 -6 5 -8 13 -3 18 11 37 12 37 2 0 -17 20 -9 21 9 0 16 1 16
8 -1 6 -17 8 -17 25 2 15 17 22 19 34 9 10 -9 13 -28 10 -74z m-32 -350 c15
-4 20 -11 17 -25 -7 -25 -14 -24 -36 6 -19 26 -16 29 19 19z"/>
<path d="M1080 1520 c0 -5 5 -10 10 -10 6 0 10 5 10 10 0 6 -4 10 -10 10 -5 0
-10 -4 -10 -10z"/>
<path d="M980 1510 c0 -5 5 -10 10 -10 6 0 10 5 10 10 0 6 -4 10 -10 10 -5 0
-10 -4 -10 -10z"/>
<path d="M1010 1440 c-8 -5 -11 -12 -7 -16 4 -4 15 0 24 9 18 18 8 23 -17 7z"/>
<path d="M1070 1425 c7 -9 15 -13 17 -11 7 7 -7 26 -19 26 -6 0 -6 -6 2 -15z"/>
<path d="M452 1460 c1 -46 2 -49 7 -20 l6 34 48 -82 c26 -45 47 -85 48 -89 1
-20 -29 -11 -41 12 -7 14 -15 23 -17 21 -3 -2 3 -16 12 -29 16 -25 16 -26 -14
-41 -51 -27 -46 -39 6 -13 26 13 64 31 83 40 27 13 30 16 11 14 -19 -2 -32 13
-77 88 -30 50 -58 97 -63 105 -7 10 -10 -2 -9 -40z"/>
<path d="M462 1360 c0 -14 2 -19 5 -12 2 6 2 18 0 25 -3 6 -5 1 -5 -13z"/>
<path d="M531 1228 c-94 -48 -108 -60 -41 -34 82 30 157 71 144 78 -5 2 -51
-17 -103 -44z"/>
<path d="M1533 1208 c2 -7 0 -23 -4 -35 -5 -13 -5 -23 0 -23 5 0 12 7 15 16
10 25 7 54 -5 54 -6 0 -9 -6 -6 -12z"/>
<path d="M1492 1174 c-7 -8 -10 -19 -6 -26 5 -7 10 -3 16 12 10 28 7 33 -10
14z"/>
<path d="M560 1170 c-8 -5 -12 -11 -10 -14 3 -2 14 2 24 10 22 15 10 19 -14 4z"/>
<path d="M1538 1010 c-12 -7 -18 -23 -18 -48 l1 -37 14 25 c8 14 14 20 15 14
0 -17 50 -4 50 13 0 10 6 13 16 9 9 -3 22 -6 30 -6 8 0 14 -6 14 -14 0 -7 9
-16 20 -19 12 -3 20 -14 20 -27 0 -11 5 -18 10 -15 6 3 10 0 10 -7 0 -25 20
16 20 43 0 44 -38 69 -116 75 -41 3 -76 0 -86 -6z"/>
<path d="M1570 904 c0 -8 5 -12 10 -9 6 4 8 11 5 16 -9 14 -15 11 -15 -7z"/>
<path d="M185 900 c-11 -18 4 -29 50 -36 40 -6 45 -9 46 -33 3 -196 10 -281
23 -311 l15 -35 1 70 c0 43 5 76 13 84 10 11 9 13 -5 8 -12 -4 -18 -1 -18 8 0
10 10 15 29 15 27 0 29 -3 35 -54 7 -63 0 -87 -23 -84 -11 2 -15 -3 -13 -17 2
-11 8 -23 13 -26 6 -3 6 -16 0 -32 -7 -18 -7 -28 1 -33 14 -9 27 14 21 37 -8
30 11 22 31 -12 15 -26 16 -33 5 -40 -8 -5 -17 -9 -21 -9 -4 0 -5 -7 -2 -15 4
-10 0 -15 -11 -15 -18 0 -18 -35 0 -35 6 0 19 -6 30 -12 20 -12 19 -12 -2 -13
-27 0 -30 -27 -8 -70 12 -23 24 -30 59 -35 56 -9 109 2 102 20 -7 20 66 29
111 14 21 -7 41 -13 45 -14 3 0 10 -3 14 -8 7 -6 -105 0 -132 8 -6 2 -16 -6
-23 -17 -8 -13 -9 -18 -1 -13 11 7 86 -3 78 -10 -3 -4 -38 -12 -90 -22 -18 -3
-28 -1 -28 6 0 17 -102 10 -108 -6 -5 -17 273 -19 283 -3 4 7 11 7 18 2 17
-13 320 -16 312 -3 -3 6 -1 11 4 11 6 0 11 -4 11 -10 0 -6 31 -10 72 -10 39 0
68 3 65 7 -4 4 -29 6 -57 4 -39 -1 -54 3 -71 20 -20 20 -25 21 -74 9 -34 -8
-70 -10 -101 -5 -27 4 -68 8 -91 8 -50 1 -62 19 -27 42 22 14 28 15 55 1 24
-12 41 -13 85 -5 30 6 59 7 65 4 19 -12 166 -18 173 -7 4 7 15 6 33 -3 25 -13
60 -13 146 0 18 3 27 0 27 -9 0 -8 -16 -15 -42 -19 -47 -5 -214 1 -238 9 -13
5 -13 3 0 -10 15 -15 116 -28 224 -30 43 -1 64 4 79 16 24 21 21 21 71 7 28
-8 35 -14 27 -22 -8 -8 -17 -7 -34 2 -16 9 -30 9 -50 2 -15 -6 -27 -12 -27
-14 0 -10 125 -5 131 5 6 9 11 9 23 -1 24 -20 106 -6 106 19 0 10 -6 21 -12
23 -9 4 -7 6 3 6 9 1 21 12 27 26 15 33 15 46 0 40 -9 -4 -13 9 -15 45 0 27 3
50 7 50 4 0 8 16 7 35 -1 34 -10 45 -21 26 -3 -5 -7 -29 -9 -55 -4 -46 -12
-65 -23 -54 -8 9 -3 92 7 102 3 3 4 20 1 37 -4 26 -8 30 -28 25 -22 -6 -64 21
-64 40 0 14 36 33 62 34 32 0 48 -24 48 -74 0 -28 3 -34 16 -29 28 11 -5 100
-46 120 -23 11 -23 13 -5 19 11 5 20 3 23 -4 6 -18 22 -14 22 4 0 14 -8 16
-47 10 -27 -3 -49 -11 -51 -16 -2 -6 -19 -10 -37 -10 -36 0 -53 23 -35 45 8 9
7 14 -1 17 -9 3 -9 9 0 25 6 12 8 29 5 37 -4 9 -1 23 6 31 7 9 10 19 6 22 -4
4 -11 1 -16 -7 -7 -11 -10 -6 -10 18 0 17 4 32 9 32 5 0 17 3 26 7 16 5 17 -1
13 -60 -4 -63 -3 -66 20 -72 14 -3 27 -4 30 -1 3 3 19 -4 36 -17 17 -13 40
-21 50 -19 15 3 16 6 5 13 -10 7 -2 9 26 8 22 -1 46 -1 53 0 13 1 17 31 4 31
-4 0 -6 15 -4 34 4 31 7 34 31 31 14 -2 30 -4 34 -4 11 -1 -2 -44 -16 -52 -5
-4 -6 -12 -2 -18 4 -7 3 -17 -2 -24 -5 -7 -10 -25 -12 -42 -5 -51 19 -14 40
61 14 50 16 71 8 81 -9 9 -8 13 0 13 7 0 9 5 6 10 -4 6 -15 8 -26 5 -10 -4
-19 -2 -19 3 0 5 -9 12 -19 15 -20 5 -37 -23 -43 -72 -2 -14 -9 -26 -16 -29
-10 -3 -13 8 -11 49 2 48 1 54 -16 51 -11 -2 -36 2 -56 8 -28 9 -39 20 -47 44
-7 22 -10 25 -11 11 -1 -17 -7 -21 -38 -19 -49 1 -74 -6 -72 -20 1 -6 -3 -24
-9 -39 -7 -16 -12 -44 -12 -63 0 -19 -5 -34 -11 -34 -6 0 -9 -7 -5 -15 7 -19
-2 -19 -73 -1 -63 16 -185 28 -308 30 -46 0 -83 4 -83 8 0 5 -69 8 -152 9 -84
0 -162 0 -173 1 -69 0 -247 -22 -262 -34 -22 -17 -31 1 -29 59 2 80 -22 137
-65 152 -39 14 -46 14 -54 1z m1385 -101 c0 -17 -19 -18 -23 -2 -2 10 -2 -6 1
-34 4 -47 3 -53 -14 -53 -16 0 -19 7 -18 53 1 28 2 55 3 59 1 10 51 -13 51
-23z m48 -19 c6 0 8 -44 3 -91 -2 -22 -27 -20 -27 3 0 10 4 18 8 18 4 0 8 5 8
11 0 5 -4 7 -10 4 -5 -3 -10 3 -10 14 0 10 -3 27 -7 37 -5 14 -3 16 11 11 10
-4 21 -7 24 -7z m117 -8 c-3 -3 -11 0 -18 7 -9 10 -8 11 6 5 10 -3 15 -9 12
-12z m-1095 -99 c-1 -16 0 -36 2 -45 5 -25 -16 -23 -22 3 -6 24 -30 39 -30 18
0 -10 -3 -10 -11 -2 -19 19 -4 41 25 36 15 -3 26 -1 26 6 0 6 2 11 5 11 3 0 5
-12 5 -27z m82 -6 c-2 -11 2 -15 12 -11 13 5 13 1 3 -25 -6 -17 -16 -31 -21
-31 -5 0 -17 -7 -27 -16 -12 -10 -25 -13 -40 -9 l-22 7 23 18 c13 10 30 15 38
12 12 -4 12 -1 3 16 -9 16 -9 27 -1 43 13 23 36 20 32 -4z m128 13 c0 -5 -15
-10 -32 -11 -28 0 -30 -2 -13 -9 13 -6 15 -9 5 -9 -23 -1 -43 15 -36 28 9 14
76 15 76 1z m100 -22 c0 -26 -2 -27 -20 -16 -11 7 -20 16 -20 20 0 5 -6 8 -14
8 -8 0 -17 4 -20 9 -3 5 12 8 34 7 37 -1 40 -3 40 -28z m-515 -10 c-9 -47 -21
-54 -29 -17 -4 22 -2 35 6 41 23 14 28 8 23 -24z m96 -3 c-1 -16 -8 -33 -15
-37 -8 -5 -7 -8 3 -8 11 0 11 -3 1 -15 -6 -8 -9 -18 -6 -24 3 -5 -3 -7 -14 -4
-11 3 -26 0 -33 -6 -8 -6 -23 -12 -35 -14 -12 -2 -25 -6 -28 -10 -11 -10 -24
-9 -24 3 0 18 33 48 46 43 9 -3 14 2 14 16 0 26 8 27 26 4 12 -17 13 -16 14 4
0 12 5 23 12 25 7 3 9 12 5 22 -4 9 -11 14 -17 11 -5 -3 -10 0 -10 8 0 9 11
14 33 13 30 -1 32 -3 28 -31z m534 -10 c-3 -49 -10 -65 -30 -65 -10 0 -11 9
-3 42 7 34 6 45 -6 54 -13 9 -11 11 13 12 28 1 29 -1 26 -43z m123 6 c3 -18 0
-22 -12 -18 -8 3 -18 2 -21 -3 -4 -6 3 -10 14 -10 12 0 21 -7 21 -15 0 -33 62
-14 66 20 0 6 2 16 2 23 1 6 9 12 18 12 12 0 15 -6 10 -23 -4 -16 1 -31 14
-44 14 -16 18 -30 13 -55 -3 -24 0 -39 11 -51 10 -10 12 -18 6 -22 -6 -3 -13
1 -16 9 -3 9 -14 16 -23 16 -14 0 -14 -2 -1 -10 13 -8 13 -11 -1 -25 -18 -19
-69 -30 -69 -15 0 5 9 10 20 10 11 0 20 5 20 11 0 11 -38 3 -53 -11 -10 -9
-47 -1 -47 10 0 5 -14 11 -31 15 -17 4 -33 13 -36 21 -4 11 -9 12 -19 3 -10
-8 -14 -8 -14 0 0 7 -16 10 -42 7 -24 -2 -42 -8 -40 -12 1 -5 5 -9 10 -9 4 0
13 -4 21 -9 10 -6 12 -5 7 3 -8 12 0 11 86 -10 41 -10 57 -27 38 -39 -9 -5 -8
-9 4 -13 8 -3 16 0 18 8 3 13 7 13 32 0 38 -20 72 -19 81 3 6 16 7 16 20 -1
11 -16 14 -16 17 -3 2 9 8 12 15 8 7 -4 10 -17 6 -30 -3 -12 -10 -19 -16 -15
-5 3 -18 -4 -27 -17 -11 -15 -22 -20 -31 -15 -7 5 -39 10 -70 12 -41 3 -58 0
-62 -10 -5 -13 4 -15 71 -18 9 -1 27 2 38 6 15 5 23 2 27 -9 5 -13 3 -15 -11
-7 -11 6 -24 6 -33 0 -13 -8 -6 -13 14 -10 4 0 7 -3 7 -7 0 -4 -28 -6 -62 -3
-35 2 -89 5 -120 5 -45 1 -58 4 -58 16 0 9 -3 11 -8 5 -10 -14 -106 -19 -97
-5 9 14 -23 132 -38 142 -7 4 -17 1 -23 -7 -19 -25 -27 -17 -22 23 l6 38 -40
-19 c-31 -16 -42 -17 -48 -7 -6 10 -16 10 -51 -2 l-44 -15 73 1 c39 1 73 -1
73 -4 6 -23 5 -51 -2 -56 -5 -3 -9 0 -9 7 0 10 -3 10 -12 1 -9 -9 -8 -15 8
-26 10 -8 16 -17 13 -21 -4 -3 -3 -22 1 -41 4 -19 4 -34 -1 -34 -5 0 -9 5 -9
11 0 6 -8 8 -19 4 -22 -7 -40 13 -21 25 8 5 1 11 -20 19 -18 6 -36 9 -40 6
-12 -8 -41 6 -34 16 3 5 -2 9 -10 9 -10 0 -13 -6 -9 -17 6 -17 5 -17 -13 -2
-23 19 -64 31 -64 18 0 -5 9 -9 20 -9 11 0 20 -5 20 -11 0 -7 -11 -9 -32 -5
-18 4 -59 7 -92 7 -51 -1 -57 1 -46 14 7 8 21 15 30 15 25 0 50 10 50 21 0 5
-12 9 -26 9 -21 0 -24 3 -15 13 6 8 8 17 4 20 -3 4 -1 7 5 7 23 0 27 -2 24
-11 -1 -5 15 -9 35 -8 34 0 36 1 14 10 -20 8 -22 11 -10 26 13 15 11 16 -20
10 -42 -9 -68 8 -46 29 17 17 25 18 25 1 0 -8 16 -12 45 -13 34 0 44 3 41 13
-3 7 1 13 9 13 8 0 15 -6 15 -14 0 -25 38 -25 74 0 32 22 36 23 36 7 0 -14 9
-19 41 -20 22 -2 37 1 34 6 -5 9 76 31 110 31 18 0 19 -22 3 -38 -9 -9 -9 -15
0 -24 7 -7 12 -23 13 -37 l0 -26 10 25 c7 17 7 26 0 28 -14 5 -14 32 -1 32 6
0 10 12 10 28 0 18 3 23 9 14 5 -9 17 -11 36 -6 24 6 26 5 17 -12 -9 -18 -6
-19 44 -19 41 0 51 3 40 11 -8 6 -11 15 -7 23 6 9 11 8 21 -4 13 -15 50 -21
50 -7 0 4 -10 12 -22 17 -33 14 -36 45 -6 45 22 0 24 4 22 36 -3 34 -2 35 29
32 25 -2 33 -8 35 -27z m-319 -21 c9 0 26 -7 37 -15 16 -12 17 -14 3 -15 -9 0
-20 -8 -23 -17 -5 -13 -9 -14 -19 -4 -9 9 -9 14 3 22 13 9 13 10 -2 6 -9 -3
-19 -3 -23 1 -4 4 -11 7 -16 7 -9 0 -10 11 -1 34 4 10 7 10 14 -3 5 -9 17 -16
27 -16z m-67 -15 c-5 -29 -29 -33 -48 -7 -17 21 -18 40 -2 24 17 -17 38 -15
38 4 0 8 4 13 9 10 4 -3 6 -17 3 -31z m557 9 c-5 -15 -7 -36 -3 -47 4 -14 2
-18 -7 -15 -9 3 -14 20 -14 46 0 33 4 42 17 42 15 0 16 -4 7 -26z m-779 -19
c0 -8 -7 -15 -15 -15 -16 0 -20 12 -8 23 11 12 23 8 23 -8z m430 0 c0 -23 -22
-34 -46 -23 -36 17 -30 36 11 35 19 -1 35 -6 35 -12z m417 -27 c-3 -8 -6 -5
-6 6 -1 11 2 17 5 13 3 -3 4 -12 1 -19z m-800 -28 c1 -16 -1 -17 -12 -7 -7 6
-11 15 -8 20 8 13 19 7 20 -13z m863 3 c0 -10 -6 -12 -21 -8 -19 6 -21 4 -16
-16 3 -13 1 -30 -6 -38 -9 -12 -9 -13 1 -7 7 4 12 1 12 -8 0 -9 -5 -16 -11
-16 -8 0 -7 -5 1 -15 7 -9 10 -19 6 -22 -4 -4 -11 -1 -15 6 -6 9 -11 10 -15 2
-4 -6 -2 -11 5 -11 6 0 9 -8 6 -20 -3 -11 -1 -23 4 -26 11 -7 -8 -34 -23 -34
-6 0 -5 6 1 14 10 11 10 20 1 36 -7 13 -9 33 -4 48 4 15 6 31 5 36 -1 4 3 14
9 21 6 7 8 20 4 29 -3 9 -4 22 -1 30 7 18 57 18 57 -1z m19 -70 c1 5 6 5 11 2
8 -5 8 -11 1 -19 -6 -6 -12 -32 -14 -56 -3 -25 -8 -53 -12 -63 -4 -10 -2 -24
5 -32 10 -12 9 -15 -4 -15 -13 0 -16 11 -16 59 0 86 11 160 21 136 4 -11 8
-16 8 -12z m-845 -131 c3 -5 -13 -9 -35 -10 -24 -1 -38 2 -34 8 7 12 62 13 69
2z m156 -17 c0 -8 -4 -15 -10 -15 -5 0 -10 7 -10 15 0 8 5 15 10 15 6 0 10 -7
10 -15z m60 -6 c0 -5 -4 -9 -10 -9 -5 0 -10 7 -10 16 0 8 5 12 10 9 6 -3 10
-10 10 -16z m-375 1 c-28 -12 -45 -12 -45 0 0 6 15 10 33 9 27 0 29 -2 12 -9z
m830 1 c3 -5 -1 -16 -9 -24 -8 -8 -13 -17 -10 -20 3 -3 2 -7 -3 -9 -4 -3 -16
4 -26 15 -19 19 -18 19 2 12 17 -5 21 -2 21 14 0 22 14 28 25 12z m-675 -21
c-8 -5 -17 -7 -19 -4 -3 3 1 9 9 14 8 5 17 7 19 4 3 -3 -1 -9 -9 -14z m751 8
c0 -10 2 -10 6 0 6 16 30 15 36 -2 4 -10 -3 -13 -26 -12 -27 1 -54 26 -28 26
6 0 11 -6 12 -12z m188 -24 c3 -16 1 -17 -13 -5 -19 16 -21 34 -3 29 6 -3 14
-13 16 -24z m-484 6 c3 -5 1 -10 -4 -10 -6 0 -11 5 -11 10 0 6 2 10 4 10 3 0
8 -4 11 -10z m-32 -17 c-7 -2 -21 -2 -30 0 -10 3 -4 5 12 5 17 0 24 -2 18 -5z
m447 -29 c0 -2 -7 -4 -15 -4 -8 0 -15 4 -15 10 0 5 7 7 15 4 8 -4 15 -8 15
-10z m-1033 -20 c-3 -3 -12 -4 -19 -1 -8 3 -5 6 6 6 11 1 17 -2 13 -5z m1077
-32 c3 -4 -11 -9 -30 -9 -18 -1 -31 3 -28 8 7 11 51 12 58 1z m-557 -18 c-3
-3 -12 -4 -19 -1 -8 3 -5 6 6 6 11 1 17 -2 13 -5z"/>
<path d="M1140 554 c0 -11 6 -14 20 -9 15 5 18 3 14 -9 -5 -13 -2 -15 14 -9
23 9 29 30 7 25 -7 -1 -16 2 -20 8 -10 16 -35 12 -35 -6z"/>
<path d="M1235 507 c-4 -15 -5 -31 -2 -34 10 -9 39 6 32 17 -3 5 -1 10 4 10 6
0 11 5 11 11 0 6 -6 9 -14 6 -8 -3 -17 -1 -19 6 -3 7 -8 -1 -12 -16z"/>
<path d="M1155 480 c-4 -6 3 -10 14 -10 25 0 27 6 6 13 -8 4 -17 2 -20 -3z"/>
<path d="M940 428 c0 -5 31 -8 69 -8 38 0 77 -3 87 -7 12 -4 15 -2 12 8 -4 10
-25 14 -86 14 -45 0 -82 -3 -82 -7z"/>
<path d="M504 419 c-2 -4 12 -9 32 -11 19 -2 37 -1 40 4 3 4 11 5 19 1 8 -3
15 0 15 5 0 12 -99 12 -106 1z"/>
<path d="M673 423 c9 -2 25 -2 35 0 9 3 1 5 -18 5 -19 0 -27 -2 -17 -5z"/>
<path d="M906 412 c-3 -5 -1 -24 4 -42 5 -18 7 -37 4 -41 -3 -5 2 -9 11 -9 12
0 14 8 9 43 -7 45 -18 65 -28 49z"/>
<path d="M1007 374 c3 -9 -2 -14 -13 -14 -13 -1 -10 -5 11 -14 35 -15 51 -11
34 10 -8 10 -8 14 0 14 6 0 11 -4 11 -9 0 -5 8 -8 18 -6 9 1 11 0 5 -2 -22 -7
-14 -23 10 -23 29 0 33 30 5 38 -10 2 -16 7 -14 11 3 3 -13 7 -34 7 -29 1 -37
-2 -33 -12z"/>
<path d="M950 359 c0 -5 5 -7 10 -4 6 3 10 8 10 11 0 2 -4 4 -10 4 -5 0 -10
-5 -10 -11z"/>
<path d="M1655 900 c-3 -5 -1 -10 4 -10 6 0 11 5 11 10 0 6 -2 10 -4 10 -3 0
-8 -4 -11 -10z"/>
<path d="M1680 820 c0 -5 5 -10 10 -10 6 0 10 5 10 10 0 6 -4 10 -10 10 -5 0
-10 -4 -10 -10z"/>
<path d="M237 759 c4 -13 8 -18 11 -10 2 7 -1 18 -6 23 -8 8 -9 4 -5 -13z"/>
<path d="M1513 647 c-4 -8 -15 -17 -23 -20 -8 -3 4 -6 28 -6 36 -1 43 2 40 16
-4 22 -34 29 -45 10z"/>
<path d="M1662 636 c5 -5 -1 -16 -12 -23 -27 -19 -16 -35 15 -21 30 13 31 21
8 39 -10 7 -15 9 -11 5z"/>
<path d="M346 591 c-4 -7 -5 -15 -2 -18 9 -9 19 4 14 18 -4 11 -6 11 -12 0z"/>
<path d="M1685 563 c-10 -21 -20 -42 -23 -47 -3 -5 1 -7 8 -4 11 3 43 78 36
85 -2 2 -11 -13 -21 -34z"/>
<path d="M1650 544 c0 -8 5 -12 10 -9 6 3 10 10 10 16 0 5 -4 9 -10 9 -5 0
-10 -7 -10 -16z"/>
<path d="M1707 503 c-2 -10 -8 -26 -12 -35 -4 -10 -3 -18 3 -18 6 0 13 14 17
31 7 33 1 51 -8 22z"/>
<path d="M1651 304 c0 -11 3 -14 6 -6 3 7 2 16 -1 19 -3 4 -6 -2 -5 -13z"/>
<path d="M875 210 c3 -5 11 -10 16 -10 6 0 7 5 4 10 -3 6 -11 10 -16 10 -6 0
-7 -4 -4 -10z"/>
</g>
</svg>
