<?xml version="1.0" standalone="no"?>
<!DOCTYPE svg PUBLIC "-//W3C//DTD SVG 20010904//EN"
 "http://www.w3.org/TR/2001/REC-SVG-20010904/DTD/svg10.dtd">
<svg version="1.0" xmlns="http://www.w3.org/2000/svg"
 width="203.000000pt" height="210.000000pt" viewBox="0 0 203.000000 210.000000"
 preserveAspectRatio="xMidYMid meet">
<metadata>
Created by potrace 1.10, written by Peter Selinger 2001-2011
</metadata>
<g transform="translate(0.000000,210.000000) scale(0.100000,-0.100000)"
fill="#000000" stroke="none">
<path d="M1010 1970 c0 -5 -7 -10 -16 -10 -8 0 -12 -4 -9 -10 8 -13 52 -13 60
-1 3 6 -4 15 -15 21 -13 7 -20 7 -20 0z"/>
<path d="M947 1934 c-4 -4 -4 -10 -1 -15 6 -10 34 0 34 12 0 10 -24 12 -33 3z"/>
<path d="M1051 1927 c-14 -17 -4 -27 26 -27 25 0 29 10 11 28 -15 15 -23 15
-37 -1z"/>
<path d="M860 1861 c-16 -16 -32 -26 -35 -23 -3 3 -5 1 -5 -5 0 -6 7 -16 15
-23 13 -10 15 -9 15 9 0 23 20 27 50 11 13 -7 21 -6 30 5 11 13 7 15 -21 16
-31 0 -32 1 -11 9 26 11 27 16 6 24 -10 4 -27 -5 -44 -23z"/>
<path d="M1130 1875 c0 -8 -9 -15 -19 -15 -10 0 -22 -7 -25 -16 -9 -25 1 -30
22 -11 25 23 85 19 78 -5 -3 -12 2 -18 14 -18 11 0 22 -4 25 -10 3 -5 13 -10
21 -10 22 0 9 16 -51 60 -60 45 -65 46 -65 25z"/>
<path d="M945 1870 c3 -5 23 -10 43 -9 33 1 34 2 12 9 -36 12 -62 12 -55 0z"/>
<path d="M757 1792 c-10 -10 -14 -22 -10 -25 3 -4 -3 -7 -15 -7 -11 0 -24 -5
-28 -12 -4 -7 -3 -8 4 -4 7 4 12 3 12 -3 0 -13 45 2 46 15 0 5 4 17 9 27 11
26 1 30 -18 9z"/>
<path d="M1027 1803 c-13 -12 -7 -25 8 -20 8 4 17 2 20 -3 8 -13 25 -13 25 0
0 6 -7 10 -15 10 -8 0 -15 5 -15 10 0 11 -13 13 -23 3z"/>
<path d="M790 1776 c0 -3 13 -14 29 -25 27 -19 30 -20 42 -4 10 12 10 15 1 9
-7 -4 -19 0 -28 8 -14 15 -44 22 -44 12z"/>
<path d="M1123 1765 c-3 -9 -3 -19 1 -22 3 -4 6 -1 6 5 0 7 7 12 15 12 8 0 15
5 15 10 0 16 -30 12 -37 -5z"/>
<path d="M1190 1766 c0 -8 -6 -16 -12 -19 -7 -2 -10 -8 -6 -12 12 -13 38 4 38
25 0 11 -4 20 -10 20 -5 0 -10 -6 -10 -14z"/>
<path d="M1250 1760 c0 -5 7 -10 15 -10 8 0 15 5 15 10 0 6 -7 10 -15 10 -8 0
-15 -4 -15 -10z"/>
<path d="M1290 1735 c-8 -20 -14 -25 -23 -17 -9 8 -17 3 -29 -18 -15 -27 -15
-28 7 -40 13 -7 35 -10 50 -6 35 9 24 24 -15 18 -21 -3 -30 0 -30 10 0 15 58
41 72 32 5 -4 8 4 6 17 -4 33 -26 35 -38 4z"/>
<path d="M668 1726 c-16 -12 -14 -13 15 -13 17 0 24 2 14 4 -9 3 -15 9 -12 14
8 12 3 11 -17 -5z"/>
<path d="M879 1721 c-13 -11 -22 -21 -19 -23 17 -11 69 -38 74 -38 3 0 1 9 -6
20 -7 11 -19 18 -26 15 -9 -3 -12 1 -10 13 3 12 12 16 36 14 18 -1 32 2 32 8
0 17 -57 11 -81 -9z"/>
<path d="M1346 1715 c-4 -11 1 -15 19 -15 28 0 33 15 9 24 -21 8 -21 8 -28 -9z"/>
<path d="M801 1696 c-17 -21 9 -37 44 -28 19 5 25 11 17 16 -7 4 -17 4 -24 0
-6 -4 -8 -3 -5 3 10 16 -20 24 -32 9z"/>
<path d="M635 1693 c-32 -8 -120 -76 -105 -81 7 -3 19 3 25 11 7 9 14 14 17
11 3 -2 22 5 41 16 30 18 41 20 73 11 44 -12 45 -12 37 17 -5 22 -7 22 -24 6
-17 -15 -19 -15 -25 0 -3 9 -9 15 -13 15 -3 -1 -15 -4 -26 -6z"/>
<path d="M1008 1694 c-5 -4 -8 -20 -8 -36 0 -20 -7 -32 -24 -40 -30 -13 -53
-68 -62 -143 -6 -51 -5 -55 14 -55 15 0 19 5 15 20 -8 31 13 24 27 -9 6 -16
24 -41 40 -56 28 -27 30 -27 54 -11 14 9 28 16 32 16 6 0 2 -52 -13 -159 -5
-36 -3 -42 8 -36 12 8 12 6 0 -8 -12 -15 -11 -17 7 -17 27 0 31 -8 25 -43 -6
-32 -26 -31 -31 1 -4 26 -33 29 -52 7 -7 -9 -19 -14 -27 -11 -7 3 -13 2 -13
-2 0 -4 -8 -8 -17 -8 -10 0 -29 -4 -43 -8 -20 -7 -23 -6 -12 5 15 16 16 49 2
49 -6 0 -10 -6 -8 -14 2 -8 -26 -29 -72 -53 -41 -22 -95 -54 -120 -71 l-45
-31 0 -115 c0 -64 3 -116 7 -116 4 0 16 12 28 27 l22 28 20 -28 c27 -36 37
-27 27 25 -15 77 -11 143 9 161 21 19 62 23 62 5 0 -6 -7 -20 -17 -30 -22 -24
-2 -23 30 2 30 24 38 25 31 5 -4 -9 0 -15 9 -15 8 0 17 7 21 15 3 8 1 15 -5
15 -6 0 -8 4 -4 9 3 5 1 12 -5 16 -5 3 -10 2 -10 -3 0 -17 -35 -8 -43 12 -5
14 -13 17 -35 11 -34 -8 -73 -44 -70 -64 2 -11 -3 -15 -17 -13 -17 2 -17 1 -5
-8 13 -9 13 -11 0 -20 -8 -5 -10 -10 -3 -10 6 0 11 -15 11 -35 0 -40 -13 -46
-24 -12 -8 25 -8 102 0 115 9 16 126 92 141 92 7 0 17 5 20 10 4 6 15 8 25 5
10 -3 21 -1 25 5 7 12 65 13 84 1 8 -5 11 -17 6 -32 -5 -19 -4 -21 4 -9 6 8
11 23 11 32 0 13 8 17 29 15 20 -1 27 -6 23 -17 -2 -8 3 -5 12 7 18 25 48 21
39 -5 -4 -13 -3 -14 5 -3 8 11 14 10 35 -4 15 -9 29 -25 32 -35 6 -19 33 -33
55 -28 7 2 14 -5 15 -16 2 -10 9 -24 16 -30 9 -8 10 -7 6 7 -9 26 8 21 27 -8
15 -23 15 -27 0 -50 -14 -22 -12 -51 4 -41 4 2 8 -11 8 -30 0 -19 -4 -34 -9
-34 -5 0 -7 7 -4 15 4 8 2 17 -3 20 -6 4 -10 -10 -10 -30 0 -25 -4 -35 -12
-32 -7 2 -13 10 -13 18 0 8 -4 17 -10 22 -6 4 -5 10 4 16 8 5 11 16 7 29 -4
11 -2 23 4 27 15 9 12 45 -4 45 -8 0 -30 13 -48 30 -25 24 -34 27 -40 16 -4
-8 -4 -25 1 -38 6 -12 10 -17 10 -10 1 16 26 15 40 -2 8 -9 9 -40 3 -107 -5
-52 -7 -96 -5 -99 3 -3 11 4 19 14 14 19 14 19 37 -2 13 -12 31 -22 40 -22 13
0 14 5 6 28 -7 21 -5 48 6 98 26 114 27 118 13 136 -7 10 -25 19 -39 20 -15 1
-25 7 -23 13 3 9 -56 55 -72 55 -3 0 -26 14 -50 32 -38 27 -47 30 -55 18 -7
-11 -8 -6 -3 15 4 17 11 34 15 39 5 6 9 25 9 43 0 18 2 33 5 33 14 0 94 -47
118 -69 33 -31 46 -19 43 39 0 21 2 36 6 34 4 -3 10 8 14 23 4 15 11 33 16 40
5 7 7 17 3 23 -8 14 -58 13 -73 -2 -6 -6 -15 -8 -19 -4 -4 4 -1 11 6 15 13 8
-32 21 -121 36 -46 7 -58 31 -19 40 28 6 29 9 36 82 7 75 7 75 -25 108 -18 18
-30 37 -27 42 3 4 -1 14 -9 20 -7 7 -15 9 -19 4 -3 -5 1 -12 7 -14 8 -3 5 -6
-5 -6 -14 -1 -17 4 -12 19 4 11 2 20 -4 20 -6 0 -11 -7 -11 -15 0 -21 -20 -19
-21 3 0 11 -5 6 -14 -13 l-13 -30 -4 38 c-1 22 -6 35 -10 31z m78 -106 c-18
-25 -20 -38 -7 -38 5 0 11 9 14 21 4 13 12 19 24 17 15 -3 18 -14 18 -75 0
-67 -2 -73 -30 -97 -50 -43 -102 -26 -131 43 -16 38 -10 94 13 126 14 19 15
18 9 -10 -6 -27 -5 -28 7 -12 19 23 37 22 37 -4 0 -11 5 -17 10 -14 6 3 10 14
10 24 0 18 18 41 33 41 4 0 1 -10 -7 -22z m68 -281 c-3 -16 -1 -15 7 6 13 33
34 37 23 5 -4 -13 -7 -35 -6 -50 1 -24 -2 -26 -18 -16 -19 12 -32 52 -23 75 8
21 22 5 17 -20z m66 -8 c-6 -11 -12 -34 -12 -50 -1 -32 -14 -28 -19 6 -4 23
17 65 32 65 6 0 6 -8 -1 -21z m50 6 c9 -11 9 -15 1 -15 -7 0 -9 -5 -5 -11 5
-8 10 -6 16 5 14 25 29 19 18 -8 -5 -13 -6 -33 -3 -45 5 -21 -11 -29 -22 -11
-4 6 -11 8 -16 5 -5 -4 -9 1 -9 9 0 9 -4 16 -10 16 -5 0 -7 -7 -4 -15 4 -8 1
-15 -5 -15 -14 0 -14 27 -1 35 6 4 10 12 9 18 -5 45 8 59 31 32z m-150 -22 c0
-21 -3 -24 -9 -14 -5 8 -7 20 -4 28 8 21 13 15 13 -14z m16 -70 c-11 -11 -19
6 -11 24 8 17 8 17 12 0 3 -10 2 -21 -1 -24z m-56 -104 c0 -5 -9 -9 -20 -9
-22 0 -27 16 -7 23 15 5 27 -1 27 -14z"/>
<path d="M987 1523 c-14 -13 -6 -23 18 -23 14 0 25 5 25 11 0 5 -5 7 -11 3 -6
-3 -14 -1 -18 5 -4 6 -10 8 -14 4z"/>
<path d="M1070 1516 c-6 -8 -10 -25 -7 -38 4 -21 4 -21 6 3 1 18 6 26 17 25 9
0 19 5 21 12 6 17 -22 15 -37 -2z"/>
<path d="M1030 1470 c0 -10 -8 -23 -17 -29 -21 -12 -13 -24 11 -15 14 5 25 64
11 64 -3 0 -5 -9 -5 -20z"/>
<path d="M1056 1436 c6 -16 34 -30 34 -18 0 5 -5 13 -12 20 -16 16 -29 15 -22
-2z"/>
<path d="M1186 1675 c4 -8 1 -15 -6 -15 -6 0 -8 -4 -5 -10 8 -14 34 11 28 27
-3 7 -9 13 -14 13 -4 0 -6 -7 -3 -15z"/>
<path d="M1409 1663 c-27 -4 -72 -43 -51 -43 6 0 14 5 17 10 3 6 17 10 31 10
13 0 24 -4 24 -10 0 -5 8 -10 19 -10 25 0 72 -25 64 -34 -4 -4 0 -4 10 0 9 3
17 11 17 17 0 6 -3 7 -6 4 -4 -3 -25 9 -47 28 -22 19 -43 34 -46 34 -3 -1 -18
-4 -32 -6z"/>
<path d="M717 1601 c6 -25 44 -29 63 -6 7 8 16 12 21 9 5 -3 9 0 9 5 0 6 -7
11 -15 11 -8 0 -15 -4 -15 -10 0 -14 -43 -13 -57 1 -9 9 -10 7 -6 -10z"/>
<path d="M857 1604 c-11 -12 3 -24 29 -24 16 0 24 5 22 13 -5 13 -40 22 -51
11z"/>
<path d="M1342 1601 c4 -13 18 -16 19 -4 0 4 -5 9 -11 12 -7 2 -11 -2 -8 -8z"/>
<path d="M466 1579 c-22 -22 -13 -39 12 -23 18 12 29 44 15 43 -4 0 -17 -9
-27 -20z"/>
<path d="M605 1592 c-10 -10 18 -32 41 -32 29 0 39 16 16 25 -22 10 -51 13
-57 7z"/>
<path d="M1410 1575 c12 -15 30 -12 30 6 0 5 -10 9 -21 9 -18 0 -19 -2 -9 -15z"/>
<path d="M510 1571 c0 -5 10 -11 23 -15 35 -9 40 -7 27 9 -13 16 -50 21 -50 6z"/>
<path d="M1284 1565 c11 -8 27 -14 35 -14 13 1 12 2 -1 6 -10 2 -18 9 -18 14
0 5 -8 9 -17 9 -16 -1 -16 -2 1 -15z"/>
<path d="M706 1543 c8 -34 14 -42 14 -20 0 8 6 17 12 19 8 3 4 9 -10 17 -22
11 -22 11 -16 -16z"/>
<path d="M1460 1560 c0 -5 6 -10 14 -10 8 0 18 5 21 10 3 6 -3 10 -14 10 -12
0 -21 -4 -21 -10z"/>
<path d="M1557 1563 c-14 -13 -6 -30 19 -41 20 -10 24 -17 18 -35 -4 -12 -15
-28 -25 -35 -11 -7 -19 -17 -19 -23 0 -14 26 -11 40 6 12 14 15 14 31 -1 11
-10 19 -12 19 -6 0 21 32 43 54 36 15 -4 9 6 -22 36 -30 29 -53 42 -73 42 -21
1 -28 5 -25 15 6 14 -6 18 -17 6z m83 -58 c0 -7 6 -15 13 -18 9 -3 8 -9 -4
-21 -18 -20 -53 -11 -45 11 3 8 6 23 6 34 0 12 5 16 15 13 8 -4 15 -12 15 -19z"/>
<path d="M406 1535 c-11 -8 -16 -15 -12 -15 5 0 3 -7 -4 -15 -7 -9 -10 -19 -6
-23 9 -9 37 28 30 39 -3 5 2 9 10 9 9 0 16 5 16 10 0 14 -11 12 -34 -5z"/>
<path d="M770 1519 c0 -17 3 -19 13 -10 8 6 17 8 21 4 3 -4 14 -8 23 -9 9 -2
28 -6 41 -9 16 -4 23 -2 20 6 -2 7 -17 14 -33 16 -16 2 -36 8 -46 14 -28 14
-39 11 -39 -12z"/>
<path d="M1245 1530 c3 -5 13 -10 21 -10 8 0 12 5 9 10 -3 6 -13 10 -21 10 -8
0 -12 -4 -9 -10z"/>
<path d="M440 1503 c0 -10 7 -67 15 -128 19 -138 19 -132 -6 -140 -15 -5 -19
-14 -17 -33 4 -34 20 -32 113 13 39 19 84 40 100 46 28 12 29 13 7 17 -13 2
-40 -5 -60 -16 -141 -74 -152 -79 -152 -63 0 24 151 100 183 93 5 -2 5 3 2 9
-4 6 -16 9 -26 6 -19 -5 -46 32 -114 161 -29 53 -45 66 -45 35z m113 -180 l19
-22 -37 -16 c-21 -8 -40 -13 -42 -11 -7 7 -23 79 -22 101 0 11 11 -4 25 -34
13 -30 27 -52 30 -48 3 3 -10 39 -30 81 -47 98 -46 120 1 36 20 -36 45 -75 56
-87z"/>
<path d="M621 1501 c-14 -12 -18 -22 -11 -26 5 -3 10 -1 10 5 0 6 10 14 22 19
12 4 17 11 11 14 -6 4 -20 -2 -32 -12z"/>
<path d="M1210 1505 c0 -8 5 -15 10 -15 6 0 10 7 10 15 0 8 -4 15 -10 15 -5 0
-10 -7 -10 -15z"/>
<path d="M1325 1494 c-9 -14 -13 -29 -9 -32 4 -4 9 -1 11 6 3 6 11 12 18 12
21 0 27 16 11 29 -10 9 -17 6 -31 -15z"/>
<path d="M1285 1500 c28 -12 37 -12 30 0 -3 6 -16 10 -28 9 -21 0 -21 -1 -2
-9z"/>
<path d="M1470 1501 c0 -5 7 -11 15 -15 22 -8 18 -26 -5 -26 -11 0 -20 7 -20
15 0 11 -11 15 -40 15 -28 0 -40 -4 -40 -14 0 -11 8 -13 33 -9 23 3 37 0 46
-11 18 -22 38 -20 53 4 7 11 24 20 37 20 20 0 22 2 11 15 -8 10 -17 12 -24 6
-6 -5 -20 -5 -31 0 -27 10 -35 11 -35 0z"/>
<path d="M340 1481 c0 -16 -4 -21 -15 -17 -9 3 -19 -3 -25 -14 -6 -11 -17 -20
-26 -20 -27 0 -72 -41 -67 -61 7 -25 11 -24 35 6 14 18 26 24 39 20 14 -5 17
-2 13 9 -4 10 1 18 11 22 9 4 14 13 11 20 -4 11 -1 11 17 2 62 -32 77 -35 77
-18 0 6 -9 10 -20 10 -11 0 -20 6 -20 13 0 7 -7 22 -15 33 -14 18 -14 18 -15
-5z"/>
<path d="M736 1485 c4 -8 1 -15 -5 -15 -6 0 -11 -5 -11 -12 0 -6 9 -3 20 7 24
21 26 35 5 35 -9 0 -12 -6 -9 -15z"/>
<path d="M520 1475 c7 -8 20 -14 29 -14 13 1 13 2 -1 6 -10 2 -18 9 -18 14 0
5 -5 9 -11 9 -8 0 -8 -5 1 -15z"/>
<path d="M663 1472 c1 -12 6 -18 14 -15 16 6 13 25 -5 31 -6 2 -10 -6 -9 -16z"/>
<path d="M780 1452 l-22 -17 21 -19 c12 -11 21 -14 21 -8 0 6 -5 14 -11 17 -7
5 -4 14 7 26 22 24 13 25 -16 1z"/>
<path d="M565 1443 c-20 -15 -19 -15 5 -9 14 3 28 6 33 6 4 0 7 5 7 10 0 15
-22 12 -45 -7z"/>
<path d="M1715 1450 c-3 -6 -18 -11 -33 -11 -18 -1 -21 -3 -9 -6 24 -6 16 -26
-14 -33 -13 -3 -19 -9 -14 -12 13 -8 55 9 55 22 0 5 14 10 30 10 21 0 30 -5
30 -16 0 -10 5 -14 16 -10 8 3 12 2 9 -4 -3 -6 0 -10 8 -10 8 0 25 -8 38 -18
l22 -19 -21 -5 c-12 -4 -25 -2 -28 3 -3 5 -17 9 -32 9 -24 -1 -22 -3 13 -15
57 -21 95 -27 95 -15 0 5 -5 10 -11 10 -5 0 -7 5 -4 10 7 12 -53 70 -72 70 -7
0 -13 4 -13 10 0 15 -58 42 -65 30z"/>
<path d="M1236 1433 c-11 -11 -6 -23 8 -23 8 0 17 4 20 9 7 10 -19 23 -28 14z"/>
<path d="M710 1405 c0 -8 4 -15 9 -15 5 0 14 7 21 15 10 13 9 15 -9 15 -12 0
-21 -6 -21 -15z"/>
<path d="M1290 1410 c0 -6 11 -10 24 -10 13 0 26 -5 28 -11 2 -5 11 -7 21 -3
10 3 16 11 15 16 -5 14 -88 21 -88 8z"/>
<path d="M320 1395 c-10 -13 -9 -15 9 -15 12 0 21 6 21 15 0 8 -4 15 -9 15 -5
0 -14 -7 -21 -15z"/>
<path d="M671 1389 c8 -16 14 -18 22 -10 9 9 8 14 -3 21 -24 16 -31 11 -19
-11z"/>
<path d="M948 1395 c-3 -3 -32 -10 -64 -15 -94 -15 -224 -56 -224 -70 0 -4 7
-10 15 -14 9 -3 15 -18 15 -39 0 -19 7 -40 15 -47 8 -7 15 -18 15 -24 0 -7 11
-23 24 -35 27 -25 39 -16 38 28 0 22 4 27 26 26 26 0 27 1 24 53 -2 34 1 52 9
52 6 0 9 -9 6 -20 -3 -11 0 -20 6 -20 6 0 7 -3 4 -7 -8 -7 11 -33 24 -33 11 0
0 60 -14 78 -7 9 -7 16 1 24 8 8 12 8 12 2 0 -16 30 -13 31 3 3 27 4 32 13 40
4 4 7 -10 4 -34 -2 -31 1 -44 14 -52 10 -6 18 -19 18 -29 0 -14 -2 -15 -10 -2
-14 22 -13 -25 1 -52 6 -11 8 -22 5 -26 -11 -10 -20 9 -26 55 -3 26 -10 48
-17 50 -16 6 -6 -96 11 -114 13 -14 146 -25 146 -12 0 5 -20 9 -45 9 l-45 0
-1 100 c-1 55 -2 105 -3 112 -1 13 -19 21 -28 13z m-98 -57 c0 -16 -3 -19 -11
-11 -6 6 -8 16 -5 22 11 17 16 13 16 -11z m-60 -20 c7 -18 9 -19 9 -5 1 9 6
17 12 17 7 0 9 -10 5 -25 -4 -14 -2 -34 4 -45 6 -11 8 -25 4 -31 -4 -6 -13 2
-21 20 -9 17 -20 28 -26 24 -8 -5 -7 -8 1 -11 14 -4 16 -32 2 -32 -5 0 -10 5
-10 10 0 6 -4 10 -10 10 -5 0 -10 -8 -10 -18 0 -28 -11 -34 -32 -15 -19 17
-24 43 -8 43 6 0 10 -7 10 -16 0 -14 2 -14 15 0 8 8 15 19 15 24 0 6 7 13 15
16 12 4 14 10 5 25 -13 25 -13 31 0 31 6 0 15 -10 20 -22z m-30 -12 c0 -14
-21 -26 -47 -26 -8 0 -13 6 -10 13 2 6 11 11 21 9 9 -2 16 2 16 8 0 5 5 10 10
10 6 0 10 -6 10 -14z"/>
<path d="M1486 1391 c-4 -6 -5 -15 -1 -20 7 -12 85 -10 85 1 0 9 -15 11 -44 8
-10 -1 -22 4 -26 10 -5 9 -9 9 -14 1z"/>
<path d="M388 1373 c-10 -2 -18 -12 -18 -22 0 -26 -11 -33 -28 -18 -13 11 -14
9 -1 -10 8 -13 16 -23 19 -23 3 0 15 18 27 40 12 22 21 39 20 39 -1 -1 -10 -3
-19 -6z"/>
<path d="M153 1353 c-26 -17 -30 -33 -10 -33 17 0 51 36 40 43 -4 3 -18 -2
-30 -10z"/>
<path d="M290 1353 c0 -5 4 -13 9 -18 5 -6 11 -19 14 -30 4 -16 5 -14 6 6 0
15 -6 32 -14 39 -8 7 -15 8 -15 3z"/>
<path d="M1587 1354 c-11 -11 3 -24 18 -18 8 4 12 10 9 15 -6 11 -18 12 -27 3z"/>
<path d="M1677 1330 c-9 -11 -12 -22 -7 -25 4 -3 10 0 12 7 3 9 13 7 34 -6 29
-19 29 -19 14 0 -33 42 -36 43 -53 24z"/>
<path d="M180 1326 c0 -7 9 -21 20 -31 16 -14 24 -16 42 -7 22 10 22 11 -5 11
-23 1 -27 5 -23 19 4 13 0 18 -14 19 -11 1 -20 -4 -20 -11z"/>
<path d="M1550 1310 c27 -22 95 -44 113 -37 7 2 -8 10 -33 17 -24 6 -53 18
-64 26 -31 21 -44 16 -16 -6z"/>
<path d="M80 1300 c-19 -15 -22 -22 -13 -31 6 -6 9 -18 6 -25 -3 -8 -1 -14 5
-14 6 0 8 -9 5 -20 -3 -12 2 -29 12 -40 9 -10 14 -24 10 -30 -4 -7 -2 -16 5
-20 7 -5 13 -22 12 -38 0 -18 5 -33 14 -36 9 -3 12 -10 9 -16 -3 -5 3 -10 14
-10 20 0 29 14 14 23 -5 2 -3 3 2 1 6 -1 19 4 30 12 10 8 28 14 38 14 16 0 17
3 7 15 -13 16 -35 21 -26 6 3 -4 -6 -13 -19 -19 -14 -7 -25 -7 -25 -2 0 5 -9
12 -20 15 -11 3 -20 12 -20 20 0 7 -5 15 -11 17 -9 3 -9 10 0 26 10 18 9 23
-4 28 -20 8 -19 30 1 38 23 9 27 8 20 -9 -5 -15 9 -21 18 -7 6 10 -19 43 -27
36 -3 -4 -14 -3 -24 0 -17 7 -17 8 1 22 18 13 18 14 2 14 -34 0 -4 20 32 21
34 2 35 2 7 6 -16 3 -35 9 -40 13 -6 5 -21 1 -35 -10z"/>
<path d="M1410 1310 c0 -5 12 -10 28 -10 21 0 24 2 12 10 -20 13 -40 13 -40 0z"/>
<path d="M1505 1300 c3 -5 16 -10 28 -10 18 0 19 2 7 10 -20 13 -43 13 -35 0z"/>
<path d="M1893 1303 c-7 -3 -13 -9 -13 -14 0 -4 7 -5 17 -2 11 4 14 3 9 -5 -5
-8 -2 -10 9 -6 8 4 22 1 31 -6 10 -9 18 -10 25 -3 19 19 -45 47 -78 36z"/>
<path d="M1803 1285 c10 -7 27 -11 37 -8 32 9 23 19 -17 20 -33 1 -36 0 -20
-12z"/>
<path d="M1370 1272 c0 -8 38 -21 108 -36 13 -2 31 -2 40 2 10 4 -6 10 -43 17
-33 6 -70 15 -82 19 -13 4 -23 3 -23 -2z"/>
<path d="M167 1253 c-4 -6 8 -20 29 -32 l36 -22 26 26 c28 28 25 42 -6 26 -27
-15 -69 -14 -74 1 -3 9 -6 9 -11 1z"/>
<path d="M1737 1239 c3 -11 12 -19 19 -19 21 0 17 27 -5 33 -14 3 -17 0 -14
-14z"/>
<path d="M1929 1246 c8 -10 9 -16 1 -21 -15 -9 -12 -35 4 -35 8 0 17 7 20 16
7 18 -10 54 -26 54 -7 0 -7 -4 1 -14z"/>
<path d="M305 1240 c-4 -6 6 -10 22 -10 22 0 25 2 13 10 -19 12 -27 12 -35 0z"/>
<path d="M1550 1238 c0 -10 -6 -18 -13 -18 -9 0 -12 -10 -9 -30 3 -18 0 -30
-7 -30 -6 0 -11 10 -12 23 0 20 -1 21 -8 2 -8 -19 -8 -19 -19 0 -10 18 -11 19
-12 2 0 -10 -4 -15 -10 -12 -5 3 -10 15 -10 25 0 14 -11 21 -42 28 -58 12 -74
1 -19 -13 33 -8 47 -17 53 -35 10 -29 58 -56 69 -39 4 6 12 8 18 5 6 -4 9 -12
6 -17 -9 -14 9 -11 31 6 18 13 18 14 -5 8 -21 -5 -23 -4 -16 13 4 10 8 29 8
42 -1 12 3 22 8 22 5 0 9 -4 9 -10 0 -5 6 -10 14 -10 8 0 16 -5 18 -11 2 -7
17 -13 33 -15 17 -1 41 -5 55 -9 23 -6 22 -5 -4 9 -16 9 -38 14 -49 10 -13 -4
-17 -2 -13 5 4 6 -4 15 -20 21 -15 6 -33 18 -40 28 -13 16 -13 16 -14 0z"/>
<path d="M1785 1240 c-5 -8 10 -12 100 -25 28 -4 29 -4 11 10 -11 8 -27 16
-35 16 -9 1 -28 3 -43 5 -15 1 -30 -1 -33 -6z"/>
<path d="M634 1224 c-18 -14 -18 -15 6 -8 31 8 50 24 29 24 -8 0 -24 -7 -35
-16z"/>
<path d="M1631 1237 c2 -1 11 -8 20 -15 14 -10 18 -10 23 3 4 11 -1 15 -21 15
-14 0 -24 -1 -22 -3z"/>
<path d="M1706 1201 c5 -4 22 -12 38 -15 26 -6 28 -5 17 8 -8 9 -25 16 -39 16
-15 0 -22 -4 -16 -9z"/>
<path d="M296 1183 c-4 -9 5 -13 28 -13 19 0 36 6 39 13 3 9 -5 13 -29 13 -18
0 -36 -6 -38 -13z"/>
<path d="M510 1180 c0 -6 9 -14 20 -17 11 -3 20 -12 20 -19 0 -8 5 -15 10 -15
31 -5 35 -2 35 29 1 17 0 32 -2 32 -1 0 -13 -5 -27 -11 -20 -9 -29 -9 -41 1
-11 9 -15 10 -15 0z"/>
<path d="M176 1172 c-22 -3 -26 -6 -15 -13 12 -7 12 -10 0 -18 -9 -6 -10 -11
-3 -15 6 -4 16 3 22 14 11 21 40 28 40 10 0 -5 5 -10 10 -10 16 0 12 14 -7 25
-10 6 -31 9 -47 7z"/>
<path d="M1392 1160 c-7 -12 -8 -20 -2 -20 5 0 10 5 10 10 0 6 7 10 16 10 8 0
12 5 9 10 -9 15 -19 12 -33 -10z"/>
<path d="M382 1154 c2 -11 -1 -18 -7 -18 -5 1 -26 4 -45 8 -26 4 -42 1 -60
-14 -14 -10 -21 -22 -17 -27 5 -4 14 0 21 10 15 20 71 23 83 5 4 -7 20 -13 36
-13 27 -1 35 9 17 20 -6 4 -8 9 -6 13 2 4 -3 13 -11 21 -12 11 -14 10 -11 -5z"/>
<path d="M440 1149 c0 -6 7 -18 16 -26 13 -13 13 -17 2 -24 -16 -10 2 -12 27
-3 14 6 13 8 -5 21 -11 8 -20 21 -20 29 0 8 -4 14 -10 14 -5 0 -10 -5 -10 -11z"/>
<path d="M1763 1145 c-10 -10 -9 -16 2 -25 8 -7 15 -19 15 -26 0 -8 5 -14 10
-14 6 0 10 6 10 14 0 8 8 17 18 19 9 3 2 5 -15 6 -32 1 -48 21 -17 21 8 0 12
5 9 10 -8 13 -18 12 -32 -5z"/>
<path d="M1816 1153 c-4 -4 12 -12 36 -18 24 -6 42 -16 41 -23 -4 -18 24 -15
31 4 13 34 7 44 -19 34 -16 -6 -34 -6 -51 0 -30 12 -29 12 -38 3z"/>
<path d="M658 1143 c-31 -8 -20 -20 17 -19 37 1 46 10 19 20 -9 3 -16 5 -17 5
-1 -1 -10 -3 -19 -6z"/>
<path d="M1600 1132 c0 -18 26 -32 61 -32 21 0 41 -5 45 -11 4 -8 9 -7 15 2
14 22 10 31 -10 24 -11 -3 -22 -1 -26 5 -5 8 -11 8 -21 -1 -11 -9 -18 -8 -32
5 -20 17 -32 21 -32 8z"/>
<path d="M707 1098 c2 -5 -1 -8 -6 -8 -6 0 -11 -5 -11 -11 0 -6 9 -4 21 5 12
8 28 12 35 9 8 -3 14 0 14 6 0 5 -13 9 -29 8 -16 -1 -27 -5 -24 -9z"/>
<path d="M1337 1103 c-9 -9 48 -33 80 -33 32 0 21 16 -14 22 -16 3 -35 8 -44
12 -8 4 -18 3 -22 -1z"/>
<path d="M281 1084 c-7 -8 -11 -17 -9 -20 5 -4 68 25 68 32 0 11 -47 1 -59
-12z"/>
<path d="M634 1076 c1 -23 2 -23 19 -9 13 13 15 18 5 25 -21 13 -26 9 -24 -16z"/>
<path d="M360 1073 c0 -5 11 -8 24 -8 13 0 22 3 19 8 -2 4 -13 7 -24 7 -10 0
-19 -3 -19 -7z"/>
<path d="M1877 1060 c6 -24 26 -21 31 3 2 11 -3 17 -16 17 -15 0 -19 -5 -15
-20z"/>
<path d="M1485 1060 c3 -5 15 -10 26 -10 10 0 19 5 19 10 0 6 -12 10 -26 10
-14 0 -23 -4 -19 -10z"/>
<path d="M1815 1060 c-28 -7 -27 -8 13 -9 27 -1 41 3 37 9 -7 11 -7 11 -50 0z"/>
<path d="M1298 1048 c16 -8 28 -8 45 0 19 9 17 11 -23 11 -40 0 -42 -2 -22
-11z"/>
<path d="M1650 1051 c0 -6 8 -12 18 -12 35 -2 87 -9 104 -13 11 -2 15 1 11 10
-3 9 -21 14 -53 14 -27 0 -55 3 -64 6 -9 3 -16 1 -16 -5z"/>
<path d="M575 1040 c-3 -5 3 -10 15 -10 12 0 18 5 15 10 -3 6 -10 10 -15 10
-5 0 -12 -4 -15 -10z"/>
<path d="M931 1036 c-9 -11 -6 -12 14 -8 14 2 22 8 19 13 -8 13 -20 11 -33 -5z"/>
<path d="M1061 1039 c0 -9 6 -22 14 -29 10 -9 15 -9 15 -1 0 6 -4 11 -9 11 -5
0 -12 8 -14 18 -4 14 -5 14 -6 1z"/>
<path d="M1430 1037 c-33 -15 -33 -14 -25 -27 4 -7 16 -3 36 10 16 12 29 16
29 10 0 -6 5 -8 11 -4 8 4 7 9 -2 15 -17 11 -18 10 -49 -4z"/>
<path d="M1180 1034 c0 -17 17 -36 24 -26 3 5 -1 15 -9 22 -8 7 -15 9 -15 4z"/>
<path d="M1140 1019 c0 -6 -7 -9 -15 -5 -8 3 -15 1 -15 -3 0 -5 -3 -17 -7 -27
-5 -14 -2 -13 16 5 12 12 26 19 31 16 6 -4 10 1 10 9 0 9 -4 16 -10 16 -5 0
-10 -5 -10 -11z"/>
<path d="M1796 1011 c-10 -11 -25 -17 -33 -14 -11 4 -14 2 -11 -8 3 -8 9 -14
14 -14 17 0 56 33 52 45 -2 7 -10 4 -22 -9z"/>
<path d="M1860 1015 c11 -13 10 -14 -4 -9 -12 4 -16 0 -16 -15 0 -23 19 -28
37 -10 14 14 4 49 -14 49 -13 0 -13 -3 -3 -15z"/>
<path d="M418 1006 c-20 -6 -42 -16 -48 -22 -16 -16 51 -13 68 4 7 6 20 12 28
12 8 0 14 -6 14 -12 0 -10 2 -10 8 -1 4 7 19 16 32 22 22 9 19 10 -20 9 -25 0
-62 -5 -82 -12z"/>
<path d="M625 1010 c-3 -5 3 -10 14 -10 11 0 23 5 26 10 3 6 -3 10 -14 10 -11
0 -23 -4 -26 -10z"/>
<path d="M1535 1006 c-17 -11 -20 -23 -17 -60 5 -52 15 -58 34 -18 10 20 20
26 38 25 119 -12 122 -12 104 8 -13 14 -20 16 -31 8 -7 -6 -13 -8 -13 -4 0 4
-6 3 -13 -3 -15 -13 -31 -4 -40 21 -6 15 -4 16 13 7 16 -9 18 -8 13 6 -5 14
-3 15 15 5 13 -7 23 -8 27 -1 7 11 47 -26 58 -53 4 -12 1 -17 -10 -17 -12 0
-14 -7 -10 -29 4 -20 2 -31 -8 -35 -9 -3 -15 -19 -15 -37 0 -27 2 -30 15 -19
8 7 15 23 15 36 0 13 4 24 9 24 5 0 12 14 16 30 7 30 19 38 30 20 9 -15 41
-12 59 5 13 13 14 11 13 -19 -2 -29 -6 -35 -30 -38 -15 -3 -32 1 -38 9 -6 7
-15 10 -20 7 -20 -12 -7 -24 31 -30 24 -4 40 -12 40 -20 0 -8 -5 -14 -11 -14
-6 0 -9 -6 -6 -14 8 -20 -43 -28 -60 -10 -23 22 -31 17 -44 -28 -17 -66 -28
-90 -38 -83 -6 3 -8 15 -6 26 8 40 9 98 2 105 -4 4 -7 2 -7 -4 0 -7 -11 -12
-24 -12 -27 0 -76 35 -76 55 0 7 -7 19 -17 26 -14 13 -16 11 -11 -11 4 -23 1
-25 -31 -26 -81 -2 -84 -3 -72 -18 8 -10 9 -16 1 -21 -6 -4 -10 -12 -9 -18 1
-7 1 -21 0 -32 -1 -17 -3 -18 -11 -5 -6 9 -10 10 -10 3 0 -6 4 -14 10 -18 10
-6 2 -36 -14 -47 -8 -6 -6 -11 4 -17 27 -18 4 -20 -45 -5 -48 14 -98 21 -210
29 -27 2 -52 4 -55 5 -3 1 -23 4 -45 5 -22 2 -47 4 -55 5 -8 1 -25 -2 -37 -5
-16 -5 -23 -3 -23 6 0 11 -19 13 -92 11 -51 -2 -98 -8 -105 -13 -7 -6 -12 -6
-15 0 -5 15 -127 21 -155 8 -17 -7 -27 -7 -35 1 -8 8 -18 8 -37 -2 -14 -7 -51
-14 -81 -15 -35 -1 -61 -8 -70 -18 -14 -14 -12 -15 12 -9 22 5 28 3 29 -11 3
-43 7 -61 13 -71 4 -7 2 -21 -4 -32 -8 -16 -8 -18 5 -14 11 5 14 20 12 68 -2
60 -1 61 25 64 26 3 27 2 21 -32 -4 -28 -2 -36 10 -36 9 0 17 -6 20 -12 2 -7
2 -2 -1 12 -10 49 -7 75 8 76 8 0 17 2 20 3 32 15 40 8 40 -35 0 -30 4 -44 13
-44 9 0 13 11 12 32 -2 39 4 68 16 68 5 0 9 -7 9 -15 0 -8 5 -15 10 -15 6 0
10 5 10 10 0 6 8 10 19 10 15 0 18 -8 18 -40 0 -48 7 -57 28 -40 14 12 14 15
-1 31 -22 25 -10 39 34 39 34 0 38 -3 40 -27 1 -15 9 -34 17 -42 13 -14 15
-12 15 11 0 15 -5 30 -10 33 -16 10 7 34 28 30 9 -2 25 -4 34 -4 11 -1 18 -11
20 -33 2 -25 8 -32 29 -35 23 -3 27 0 27 22 0 17 -5 24 -14 21 -18 -7 -35 16
-23 34 8 13 10 13 18 1 5 -8 22 -14 38 -15 26 -1 28 -4 26 -38 -2 -55 43 -59
76 -7 12 20 3 24 -41 20 -10 -1 -18 2 -18 7 0 6 23 12 51 14 l50 3 -3 -33 c-3
-35 12 -52 47 -52 19 1 19 2 -3 20 l-22 19 22 4 23 4 -22 8 c-13 4 -23 12 -23
17 0 6 10 8 23 4 12 -3 37 -6 54 -6 30 0 32 -2 29 -31 -5 -43 34 -79 48 -44 3
8 1 15 -5 15 -6 0 -7 5 -3 12 4 6 -2 18 -12 26 -17 13 -16 14 20 9 38 -6 73
-36 55 -48 -14 -8 1 -39 18 -39 12 0 14 9 10 41 -4 33 -3 39 10 35 8 -3 23 -6
34 -6 14 0 19 -7 19 -25 0 -28 -17 -34 -22 -7 -2 9 -3 -17 -2 -58 1 -49 -3
-83 -12 -97 -9 -15 -10 -24 -3 -28 6 -4 7 -11 0 -18 -5 -7 -10 -25 -11 -42 -3
-44 -1 -52 10 -35 8 13 10 12 10 -2 0 -10 -5 -18 -11 -18 -6 0 -9 -6 -6 -14
10 -25 -20 -41 -47 -27 -13 7 -32 11 -42 10 -10 -2 -24 0 -30 3 -26 17 -73 18
-88 2 -9 -8 -20 -13 -26 -9 -5 3 -19 1 -30 -5 -28 -15 -94 -2 -80 15 8 9 4 14
-15 17 -22 5 -23 3 -13 -10 12 -14 10 -14 -12 -2 -28 15 -136 15 -188 1 -26
-8 -34 -7 -39 4 -3 8 -9 12 -14 9 -5 -3 -16 2 -25 10 -8 9 -27 15 -42 15 l-27
-2 28 -4 c16 -3 26 -10 24 -16 -5 -16 -63 -16 -60 1 2 6 -2 12 -8 12 -7 0 -9
-9 -6 -21 4 -17 2 -19 -11 -13 -9 5 -39 7 -65 6 -30 -1 -46 2 -42 8 3 6 1 10
-5 10 -6 0 -10 -6 -9 -13 4 -30 -2 -47 -16 -47 -18 0 -20 17 -2 23 9 3 9 8 1
16 -8 9 -18 9 -39 1 -25 -9 -26 -9 -15 5 10 13 9 15 -9 15 -11 0 -21 -1 -21
-3 0 -1 12 -38 28 -83 l27 -81 428 1 c235 0 427 3 427 7 0 4 11 9 25 11 26 5
35 -6 13 -16 -7 -3 31 -4 85 -3 73 2 96 5 92 15 -2 6 0 12 5 12 6 0 10 -4 10
-10 0 -14 73 -25 78 -12 2 6 9 9 17 6 8 -3 16 4 20 18 20 73 48 166 56 186 5
14 5 22 -1 22 -6 0 -10 5 -10 10 0 6 5 9 11 8 9 -2 50 95 77 184 4 14 14 43
22 68 5 14 11 43 15 65 4 22 13 54 20 70 7 17 22 58 33 92 l20 61 -21 6 c-12
3 -28 -1 -37 -9 -21 -19 -44 -19 -37 -1 4 10 1 13 -8 10 -9 -4 -19 4 -26 20
-7 14 -22 32 -33 39 -29 19 -145 21 -171 3z m41 -19 c4 -4 0 -7 -8 -7 -9 0
-19 -12 -22 -26 -9 -36 -18 -25 -10 13 6 29 23 37 40 20z m-28 -174 c-5 -7 -8
-20 -5 -30 4 -14 5 -13 6 5 0 12 6 22 12 22 7 0 9 -8 4 -22 -4 -13 -7 -34 -7
-48 0 -24 -12 -40 -33 -40 -6 0 -11 28 -11 64 -1 60 0 64 22 62 16 -1 20 -4
12 -13z m-53 -52 c-1 -32 -5 -63 -9 -69 -4 -7 4 -10 21 -10 16 1 38 -2 50 -6
28 -9 33 1 24 51 -9 48 -4 59 24 59 18 0 21 -7 23 -54 1 -30 4 -58 7 -62 5 -8
65 -11 78 -3 5 3 5 8 0 12 -6 3 -8 23 -5 43 4 38 3 38 65 29 9 -1 -1 -43 -13
-51 -4 -3 -7 -12 -8 -20 -3 -49 -17 -101 -40 -150 -14 -30 -24 -70 -24 -89 1
-27 -1 -32 -10 -23 -19 19 -25 14 -25 -25 0 -49 -14 -123 -23 -123 -4 0 -7 22
-7 50 -1 27 2 50 6 50 4 0 7 16 7 35 0 19 -4 35 -8 35 -12 0 -16 -16 -22 -74
-3 -26 -7 -51 -10 -54 -3 -3 -1 -11 5 -18 12 -15 -3 -27 -25 -18 -17 7 -22 44
-6 44 14 0 1 52 -16 66 -8 6 -14 19 -14 30 0 13 3 15 11 7 14 -14 39 -6 39 13
0 17 -17 18 -23 2 -4 -10 -6 -10 -6 0 -1 7 6 15 14 18 8 4 15 15 15 25 0 18
-2 18 -24 4 -23 -15 -25 -15 -40 7 -12 17 -16 19 -16 6 0 -9 5 -18 12 -20 9
-3 9 -11 1 -34 -16 -40 -24 -134 -13 -135 6 -1 15 -2 22 -3 17 -2 22 -26 4
-26 -8 0 -26 4 -40 10 -25 9 -25 10 -20 97 6 114 10 128 36 153 48 45 100 16
100 -56 0 -25 4 -31 15 -27 16 6 12 36 -10 83 -16 33 -64 56 -88 42 -9 -6 -25
-9 -35 -8 -11 2 -13 1 -6 -1 15 -5 15 -9 2 -33 -6 -11 -17 -17 -25 -14 -8 4
-15 1 -15 -5 0 -6 4 -11 9 -11 5 0 8 -19 6 -42 -3 -24 -7 -65 -9 -93 -3 -27
-3 -59 0 -70 7 -28 56 -48 96 -40 l33 7 -24 -26 c-17 -18 -28 -23 -35 -16 -13
13 -36 13 -36 0 0 -5 11 -13 26 -16 18 -5 31 -1 48 15 25 24 40 18 26 -10 -6
-9 -8 -24 -5 -31 3 -8 -4 -14 -20 -14 -14 -1 -23 1 -20 5 2 4 -10 6 -28 3 -25
-3 -29 -1 -17 7 8 6 13 11 10 12 -3 0 -17 2 -32 4 -16 2 -37 6 -48 10 -11 3
-20 2 -20 -3 0 -12 24 -22 51 -22 10 0 19 -4 19 -9 0 -5 -25 -9 -55 -8 -30 1
-55 5 -55 9 0 4 6 8 13 9 10 0 10 2 0 6 -20 8 -15 21 9 25 12 2 23 9 26 16 2
7 -2 10 -11 6 -10 -4 -15 0 -13 11 2 16 10 18 38 9 10 -3 17 -10 15 -16 -1 -6
4 -13 12 -16 8 -3 11 0 7 7 -4 6 0 11 11 11 11 1 3 9 -21 22 -33 17 -43 18
-59 9 -10 -7 -20 -11 -22 -9 -7 7 8 58 16 58 5 0 7 10 5 23 -14 70 -15 88 -4
81 10 -7 8 18 -7 58 -3 7 0 20 5 28 9 13 11 13 20 0 7 -11 9 4 5 49 -4 53 -3
62 10 57 8 -3 15 -1 15 4 0 6 -7 10 -16 10 -10 0 -14 6 -10 18 3 9 10 46 17
80 11 60 24 77 60 81 3 1 5 -25 4 -58z m-940 -491 c-3 -5 -19 -8 -36 -8 -31 1
-31 1 -8 13 24 13 53 9 44 -5z m161 5 c4 -9 17 -15 33 -14 14 1 40 -2 56 -6
24 -5 35 -2 49 14 20 22 46 28 46 11 0 -5 -6 -10 -12 -11 -8 0 -7 -3 2 -6 10
-4 4 -10 -20 -19 l-35 -13 35 3 c19 2 37 5 40 6 15 6 67 4 77 -3 7 -5 21 -6
33 -2 11 3 20 3 20 -2 0 -12 37 -12 83 -1 23 5 43 6 50 0 11 -8 136 -9 167 -1
8 2 14 0 15 -6 0 -5 3 -15 7 -20 4 -7 -9 -11 -35 -12 -97 -2 -145 -8 -141 -15
3 -4 -1 -8 -9 -8 -8 0 -17 6 -20 14 -3 8 -24 15 -52 18 -39 3 -43 1 -28 -9 9
-7 29 -13 45 -13 15 0 28 -4 28 -9 0 -15 -84 -3 -96 14 -12 15 -54 21 -54 7 0
-5 12 -13 28 -19 l27 -12 -30 6 c-16 4 -38 15 -49 25 -11 10 -29 18 -40 17
-18 -1 -18 -2 3 -8 14 -4 26 -12 29 -20 3 -10 -6 -11 -44 -5 -27 5 -76 8 -109
8 -33 0 -64 5 -68 11 -6 7 -10 6 -14 -2 -2 -7 -9 -13 -14 -13 -6 0 -7 5 -4 10
3 6 -1 10 -10 10 -9 0 -14 -4 -11 -9 8 -12 -24 -19 -70 -15 -21 1 -44 -2 -51
-8 -9 -7 -17 -7 -27 1 -8 7 -32 11 -53 10 -40 -3 -63 5 -63 22 0 5 7 9 15 9 8
0 15 4 15 10 0 5 -6 7 -14 4 -8 -3 -17 -1 -21 5 -3 7 3 11 17 12 13 1 48 3 78
6 75 6 171 4 195 -3 18 -6 18 -5 3 10 -9 9 -26 16 -38 16 -12 0 -18 5 -15 10
9 15 45 12 51 -5z m229 -6 c-7 -10 -35 -1 -35 11 0 5 9 6 20 3 11 -3 17 -9 15
-14z m335 -6 c0 -1 -13 -9 -30 -18 -29 -15 -59 -21 -47 -8 4 3 2 12 -4 19 -9
11 -2 13 35 11 25 -1 46 -3 46 -4z m100 -13 c0 -5 -6 -10 -14 -10 -8 0 -18 5
-21 10 -3 6 3 10 14 10 12 0 21 -4 21 -10z m-257 -7 c-13 -2 -33 -2 -45 0 -13
2 -3 4 22 4 25 0 35 -2 23 -4z"/>
<path d="M1506 635 c-19 -14 -17 -15 18 -15 26 0 36 4 34 13 -7 18 -30 19 -52
2z"/>
<path d="M1655 616 c-10 -7 -16 -18 -14 -24 3 -7 12 -5 28 7 13 10 19 21 14
24 -6 4 -18 0 -28 -7z"/>
<path d="M1684 565 c-14 -33 -30 -51 -18 -20 4 11 0 15 -16 15 -19 0 -20 -1
-6 -16 9 -8 16 -22 16 -30 0 -26 20 -14 26 16 4 16 13 35 20 41 17 14 18 29 3
29 -5 0 -17 -16 -25 -35z"/>
<path d="M490 210 l-25 -8 28 -1 c15 -1 27 4 27 9 0 6 -1 10 -2 9 -2 -1 -14
-5 -28 -9z"/>
<path d="M565 204 c-19 -15 -19 -15 5 -10 14 4 40 8 58 9 50 5 51 17 1 17 -24
0 -53 -8 -64 -16z"/>
<path d="M156 991 c-8 -13 3 -38 19 -45 19 -7 27 23 11 40 -17 16 -23 17 -30
5z"/>
<path d="M220 975 c-10 -12 -10 -15 3 -15 8 0 17 -6 20 -12 2 -7 8 -9 13 -5 5
4 2 12 -5 16 -7 5 -10 14 -7 20 11 17 -10 13 -24 -4z"/>
<path d="M1020 969 c0 -14 -3 -29 -7 -32 -11 -12 -32 14 -26 31 5 13 0 12 -18
-5 -31 -28 -33 -80 -3 -75 10 2 37 4 59 5 22 2 46 6 54 11 11 7 13 4 9 -12 -4
-12 -2 -22 3 -22 5 0 9 4 9 9 0 5 7 12 16 15 12 4 14 1 9 -14 -8 -24 3 -26 20
-3 15 20 9 43 -11 43 -17 0 -18 16 -1 27 6 4 13 16 13 25 1 10 -2 15 -7 12 -5
-3 -9 -10 -9 -15 0 -12 -25 -39 -35 -39 -4 0 -5 7 -1 15 8 22 -4 18 -30 -10
-13 -14 -31 -25 -41 -24 -11 0 -13 3 -5 6 6 2 12 11 12 19 0 9 4 13 9 10 9 -6
21 16 21 37 0 7 -4 6 -10 -3 -9 -13 -11 -13 -20 0 -8 12 -10 10 -10 -11z"/>
<path d="M1172 973 c1 -10 -1 -24 -5 -30 -10 -17 0 -33 20 -33 11 0 14 6 9 23
-3 12 -6 30 -6 40 0 9 -5 17 -11 17 -5 0 -9 -8 -7 -17z"/>
<path d="M1412 948 c3 -7 15 -15 28 -16 13 -2 34 -11 47 -19 14 -10 23 -11 23
-4 0 6 -5 11 -11 11 -6 0 -8 9 -3 22 6 21 5 21 -10 9 -13 -11 -22 -12 -42 -2
-32 14 -37 14 -32 -1z"/>
<path d="M341 940 c-8 -4 -20 -6 -28 -3 -7 3 -13 0 -13 -6 0 -20 31 -25 48 -8
18 19 13 30 -7 17z"/>
<path d="M374 928 c-8 -13 -5 -15 44 -23 25 -4 42 -3 42 3 0 17 -77 35 -86 20z"/>
<path d="M187 923 c-11 -11 -7 -46 9 -73 12 -21 14 -22 12 -5 -2 11 3 20 10
19 6 -1 22 -2 35 -2 14 -1 23 -9 24 -19 9 -127 9 -192 2 -187 -5 3 -9 20 -9
39 0 18 -6 35 -12 38 -10 3 -10 7 0 19 10 13 10 17 0 20 -7 3 -13 11 -14 19
-3 44 -5 50 -14 44 -5 -3 -10 -19 -10 -35 0 -38 49 -192 59 -186 4 3 8 -7 8
-22 0 -15 17 -82 38 -149 36 -112 40 -121 62 -119 13 2 29 10 36 18 6 9 19 18
27 21 10 4 8 6 -6 6 -12 1 -24 -6 -28 -14 -3 -8 -10 -15 -15 -15 -6 0 -8 7 -5
15 4 8 1 15 -6 15 -7 0 -10 7 -7 14 4 10 1 13 -7 10 -11 -4 -12 5 -8 43 4 41
3 46 -10 36 -12 -10 -16 -7 -25 20 -18 52 -36 274 -23 282 4 3 0 26 -10 52
-13 37 -26 52 -56 68 -22 11 -42 23 -45 28 -3 4 -8 4 -12 0z"/>
<path d="M520 921 c-19 -3 -30 -9 -24 -13 15 -10 85 2 78 13 -3 5 -8 8 -12 8
-4 -1 -23 -4 -42 -8z"/>
<path d="M1578 923 c-21 -5 -24 -33 -4 -33 7 0 16 9 19 20 3 11 4 19 4 19 -1
-1 -10 -3 -19 -6z"/>
<path d="M1650 894 c0 -17 22 -14 28 4 2 7 -3 12 -12 12 -9 0 -16 -7 -16 -16z"/>
<path d="M548 878 c-3 -7 -29 -11 -73 -11 -54 1 -73 -3 -88 -18 -17 -16 -18
-19 -5 -19 9 0 18 5 20 10 2 6 35 12 75 14 73 4 93 10 93 27 0 13 -18 11 -22
-3z"/>
<path d="M830 870 l-35 -6 43 -14 c43 -14 54 -27 27 -35 -42 -13 -49 -18 -38
-22 6 -2 30 5 52 15 22 11 42 17 45 14 10 -9 146 -11 146 -1 0 5 -26 9 -59 9
-66 0 -121 9 -121 20 0 4 10 12 23 18 14 7 17 11 7 11 -9 1 -22 -5 -28 -11 -9
-9 -15 -9 -20 -3 -4 6 -23 8 -42 5z"/>
<path d="M1186 873 c-13 -4 -15 -7 -7 -13 16 -9 62 0 55 11 -5 9 -17 10 -48 2z"/>
<path d="M580 858 c0 -10 31 -10 48 0 8 6 2 9 -18 9 -16 0 -30 -4 -30 -9z"/>
<path d="M433 829 c3 -15 -40 -21 -63 -9 -10 5 -25 7 -34 4 -12 -5 -13 -9 -3
-25 6 -10 16 -19 21 -19 4 0 3 7 -4 15 -10 12 -10 15 3 15 8 0 17 -7 21 -15 6
-16 17 -14 76 13 31 13 32 16 15 23 -29 11 -35 11 -32 -2z"/>
<path d="M586 825 c-2 -7 4 -15 17 -19 27 -7 28 -5 6 16 -14 13 -19 14 -23 3z"/>
<path d="M540 819 c0 -5 -14 -15 -30 -21 -17 -5 -35 -18 -40 -27 -7 -14 1 -13
44 8 30 14 50 28 45 29 -5 2 -7 8 -3 13 3 5 0 9 -5 9 -6 0 -11 -5 -11 -11z"/>
<path d="M1170 820 c0 -13 28 -25 38 -16 3 4 0 11 -8 16 -20 13 -30 12 -30 0z"/>
<path d="M877 783 c-43 -7 -21 -23 31 -23 44 1 46 2 28 15 -11 8 -22 14 -25
14 -3 -1 -18 -4 -34 -6z"/>
<path d="M970 771 c0 -10 108 -6 118 4 3 3 -22 5 -56 5 -34 0 -62 -4 -62 -9z"/>
<path d="M1110 760 c0 -11 4 -20 10 -20 5 0 7 7 4 15 -6 16 16 21 30 8 4 -4
15 -8 23 -8 9 0 18 -5 20 -12 3 -7 -4 -9 -18 -6 -15 4 -20 3 -15 -5 4 -7 18
-12 32 -12 15 0 23 4 19 11 -4 6 1 17 11 25 18 13 17 14 -7 8 -15 -3 -30 -1
-33 5 -4 6 -23 11 -42 11 -27 0 -34 -4 -34 -20z"/>
<path d="M404 755 c-17 -13 -17 -14 -2 -15 9 0 20 5 23 11 11 17 0 20 -21 4z"/>
<path d="M1059 574 c-10 -12 -9 -13 4 -9 9 4 17 0 21 -12 6 -19 46 -30 46 -12
0 5 -4 9 -10 9 -5 0 -19 9 -29 19 -17 17 -21 18 -32 5z"/>
<path d="M643 563 c9 -2 25 -2 35 0 9 3 1 5 -18 5 -19 0 -27 -2 -17 -5z"/>
<path d="M337 533 c-3 -4 1 -17 9 -28 14 -19 15 -19 11 2 -4 26 -13 38 -20 26z"/>
<path d="M1015 530 c-19 -8 -19 -9 2 -9 12 -1 25 4 28 9 7 12 -2 12 -30 0z"/>
<path d="M889 514 c-10 -12 -10 -20 -1 -35 7 -10 12 -26 12 -36 0 -9 3 -13 8
-9 4 4 7 13 7 19 0 8 20 12 57 12 31 0 51 3 45 7 -18 11 2 9 61 -6 28 -8 52
-10 52 -5 0 5 -7 9 -15 9 -9 0 -18 7 -22 16 -5 13 -8 13 -15 2 -8 -10 -11 -10
-15 0 -3 9 -16 11 -39 6 -26 -5 -35 -2 -40 10 -3 9 -11 16 -16 16 -6 0 -6 -6
1 -14 9 -11 9 -16 0 -22 -7 -4 -15 -2 -17 5 -3 9 -7 9 -18 0 -12 -10 -17 -9
-27 1 -9 10 -9 13 1 17 14 5 17 23 3 23 -5 0 -14 -7 -22 -16z"/>
<path d="M800 507 c-11 -9 -15 -33 -15 -94 0 -45 3 -85 8 -89 4 -4 7 9 7 29 0
20 5 37 10 37 6 0 10 -16 10 -35 0 -24 5 -35 15 -35 8 0 15 7 15 15 0 8 5 15
10 15 6 0 13 -7 16 -15 4 -8 11 -15 16 -15 6 0 7 8 3 18 -4 9 -8 28 -10 42 -4
53 -23 89 -47 90 -4 0 -6 -12 -4 -27 1 -20 7 -28 19 -27 23 2 16 -20 -7 -24
-26 -5 -49 17 -35 34 9 11 9 14 0 14 -13 0 -3 53 11 58 10 4 11 22 1 22 -5 0
-15 -6 -23 -13z"/>
<path d="M700 486 c-9 -12 -8 -15 8 -13 12 0 18 6 15 14 -6 16 -8 16 -23 -1z"/>
<path d="M441 473 c-1 -12 -5 -24 -11 -28 -5 -3 -7 -12 -3 -20 3 -8 0 -15 -6
-15 -6 0 -11 -4 -11 -8 0 -5 14 -6 31 -4 22 3 27 7 18 13 -8 5 -9 9 -4 9 6 0
3 5 -5 10 -10 7 -12 12 -4 18 7 4 8 15 3 27 -7 19 -8 19 -8 -2z"/>
<path d="M479 481 c7 -5 10 -14 7 -20 -5 -7 5 -11 31 -11 l37 0 -39 20 c-40
20 -61 27 -36 11z"/>
<path d="M1160 480 c0 -5 4 -10 9 -10 5 0 18 -3 28 -7 17 -6 17 -6 1 10 -18
19 -38 22 -38 7z"/>
<path d="M640 430 c-4 -3 -36 -5 -69 -4 -34 0 -61 -3 -61 -7 0 -11 113 -10
130 1 7 4 25 4 41 0 18 -6 31 -4 38 3 7 9 -1 12 -31 12 -22 0 -44 -2 -48 -5z"/>
<path d="M940 428 c0 -6 28 -9 75 -6 41 2 75 0 75 -4 0 -5 4 -8 10 -8 5 0 7 6
4 14 -7 17 -164 21 -164 4z"/>
<path d="M1188 429 c12 -7 22 -16 22 -21 0 -11 37 -10 44 1 3 5 -7 11 -22 13
-15 3 -36 8 -47 12 -15 5 -14 4 3 -5z"/>
<path d="M1139 407 c6 -8 9 -17 6 -21 -3 -3 0 -2 6 3 12 10 4 31 -13 31 -7 0
-7 -4 1 -13z"/>
<path d="M911 373 c5 -21 9 -42 9 -46 0 -5 5 -5 11 -2 6 4 7 14 3 24 -4 9 -6
26 -5 39 0 13 -5 22 -13 22 -11 0 -12 -8 -5 -37z"/>
<path d="M620 390 c-11 -8 -9 -9 13 -8 15 1 27 6 27 10 0 11 -22 10 -40 -2z"/>
<path d="M980 390 c-7 -5 2 -10 25 -14 20 -4 39 -5 42 -3 8 9 -54 25 -67 17z"/>
<path d="M474 364 c3 -8 -1 -14 -9 -14 -8 0 -15 -4 -15 -9 0 -6 9 -9 20 -8 11
1 20 5 20 9 0 4 9 8 21 8 27 0 16 16 -16 23 -19 3 -25 1 -21 -9z"/>
<path d="M570 360 c-12 -8 -9 -10 13 -10 16 0 26 4 22 10 -8 12 -16 12 -35 0z"/>
<path d="M640 360 c17 -11 57 -14 47 -3 -4 3 -19 8 -34 9 -21 2 -24 1 -13 -6z"/>
<path d="M1095 355 c20 -16 20 -16 -2 -10 -12 3 -24 2 -27 -4 -7 -10 136 -20
144 -10 3 4 14 9 25 11 11 3 -7 8 -40 12 -33 4 -73 9 -90 12 -28 4 -28 4 -10
-11z"/>
<path d="M1291 339 c-14 -40 -14 -39 2 -39 7 0 12 14 13 35 0 19 -1 35 -2 35
-1 0 -7 -14 -13 -31z"/>
<path d="M1010 351 c0 -14 18 -23 31 -15 8 4 7 9 -2 15 -18 11 -29 11 -29 0z"/>
<path d="M1035 299 c-4 -6 -5 -13 -2 -16 7 -7 27 6 27 18 0 12 -17 12 -25 -2z"/>
</g>
</svg>
